<?xml version="1.0" encoding="utf-8"?>
<!-- Generator: Adobe Illustrator 24.1.0, SVG Export Plug-In . SVG Version: 6.00 Build 0)  -->
<svg version="1.1" xmlns="http://www.w3.org/2000/svg" xmlns:xlink="http://www.w3.org/1999/xlink" x="0px" y="0px"
	 viewBox="0 0 226.77 226.77" style="enable-background:new 0 0 226.77 226.77;" xml:space="preserve">
<style type="text/css">
	.st0{fill:#EFEFEF;}
	.st1{fill:#FFFFFF;}
	.st2{fill:#5CC9E8;}
	.st3{fill:#394F56;}
	.st4{fill:#395057;stroke:#395057;stroke-width:0.75;stroke-miterlimit:10;}
	.st5{fill:#395057;stroke:#395057;stroke-width:0.1;stroke-miterlimit:10;}
</style>
<g id="BG">
	<path class="st0" d="M163.94,193.15H62.83c-6.6,0-12-5.4-12-12V45.62c0-6.6,5.4-12,12-12h101.1c6.6,0,12,5.4,12,12v135.53
		C175.94,187.75,170.54,193.15,163.94,193.15z"/>
</g>
<g id="LOGO">
	<g>
		<g>
			<path class="st1" d="M131.61,104.4h-19.95c3.05,0,5.47-2.81,4.81-5.97c-0.48-2.3-2.62-3.88-4.97-3.88l-6.87,0h-7.02H95.2
				c0,0-7.86,0.3-12.02,8.88c-0.24,0.5-0.48,1.01-0.69,1.57c-0.95,2.46-1.33,5.1-1.33,7.73v0.86c0,2.63,0.39,5.27,1.33,7.73
				c3.9,10.12,12.71,10.44,12.71,10.44h5.55h3.88h26.99c6.61,0,12.02-5.41,12.02-12.02v-3.33
				C143.63,109.81,138.22,104.4,131.61,104.4z"/>
		</g>
		<g>
			<g>
				<path class="st2" d="M144.93,80.69C144.92,80.69,144.92,80.68,144.93,80.69c-0.42-12.09-8.13-20.49-32.16-20.49
					c-24.71,0-32.17,8.88-32.17,21.52s13.74,12.72,13.74,12.72h18.42h2.99c2.23,5.36,7.53,9.15,13.67,9.15
					c1.26,0,2.47-0.18,3.64-0.47c1.23-0.27,2.7-0.82,4.24-1.83c1.41-0.89,2.66-2.01,3.69-3.32c0.02-0.02,0.04-0.04,0.05-0.06
					c0.04-0.05,0.07-0.1,0.1-0.15c0.9-1.18,1.63-2.49,2.15-3.9c0.07-0.17,0.13-0.35,0.19-0.53c0.02-0.06,0.04-0.11,0.06-0.17
					C144.66,89.97,145.02,87.49,144.93,80.69z"/>
			</g>
			<g>
				<path class="st2" d="M96.76,94.44V81.9h19.84l6.05-9.31c0.63-0.96,1.69-1.54,2.84-1.54h16.59"/>
			</g>
			<g>
				<polyline class="st2" points="115.76,94.44 128.38,94.44 134.22,88.17 144.7,88.17 				"/>
			</g>
			<g>
				<line class="st2" x1="105.91" y1="71.05" x2="83.18" y2="71.05"/>
			</g>
			<g>
				<circle class="st2" cx="108.56" cy="70.98" r="2.65"/>
			</g>
		</g>
		<g>
			<g>
				<path class="st3" d="M131.82,133.54H95.41c-0.47-0.02-10.09-0.49-14.37-11.58c-0.96-2.5-1.45-5.32-1.45-8.37v-0.86
					c0-3.06,0.49-5.87,1.45-8.37c0.23-0.6,0.49-1.16,0.75-1.7c4.57-9.43,13.19-9.87,13.55-9.88l16.37,0c3.25,0,6.08,2.23,6.72,5.3
					c0.33,1.57,0.1,3.17-0.64,4.55h14.03c7.61,0,13.8,6.19,13.8,13.8v3.33C145.62,127.35,139.43,133.54,131.82,133.54z M95.41,96.34
					c-0.2,0.01-6.8,0.42-10.41,7.87c-0.22,0.46-0.43,0.92-0.63,1.43c-0.81,2.09-1.21,4.47-1.21,7.09v0.86c0,2.62,0.41,5,1.21,7.09
					c3.41,8.83,10.8,9.29,11.12,9.3l36.34,0c5.64,0,10.23-4.59,10.23-10.23v-3.33c0-5.64-4.59-10.23-10.23-10.23h-19.95
					c-0.98,0-1.78-0.8-1.78-1.78c0-0.99,0.8-1.78,1.78-1.78c0.94,0,1.83-0.43,2.44-1.17c0.61-0.75,0.83-1.69,0.63-2.65
					c-0.3-1.42-1.66-2.46-3.23-2.46H95.41z"/>
			</g>
			<g>
				<g>
					<path class="st3" d="M111.87,106.18H98.53c-0.98,0-1.78-0.8-1.78-1.78c0-0.99,0.8-1.78,1.78-1.78h13.34
						c0.98,0,1.78,0.8,1.78,1.78C113.66,105.38,112.86,106.18,111.87,106.18z"/>
				</g>
				<g>
					<path class="st3" d="M142.19,113.02h-27.16c-0.98,0-1.78-0.8-1.78-1.78c0-0.99,0.8-1.78,1.78-1.78h27.16
						c0.98,0,1.78,0.8,1.78,1.78C143.98,112.22,143.18,113.02,142.19,113.02z"/>
				</g>
				<g>
					<path class="st3" d="M143.08,119.86h-28.05c-0.98,0-1.78-0.8-1.78-1.78c0-0.99,0.8-1.78,1.78-1.78h28.05
						c0.98,0,1.78,0.8,1.78,1.78C144.87,119.06,144.07,119.86,143.08,119.86z"/>
				</g>
				<g>
					<path class="st3" d="M142.19,126.7h-27.16c-0.98,0-1.78-0.8-1.78-1.78c0-0.99,0.8-1.78,1.78-1.78h27.16
						c0.98,0,1.78,0.8,1.78,1.78C143.98,125.9,143.18,126.7,142.19,126.7z"/>
				</g>
				<g>
					<g>
						<path class="st3" d="M129.39,105.38c-6.31,0-12-3.56-14.81-9.15H94.31c-5.38-0.03-15.53-3.11-15.53-14.51
							c0-15.68,11.11-23.31,33.95-23.31c22.24,0,33.34,7.21,33.93,22.04c0.01,0.07,0.01,0.14,0.02,0.21
							c0.1,6.67-0.22,9.48-1.46,13.09c0,0.01-0.04,0.12-0.05,0.13l-1.73-0.45l1.68,0.6c-0.06,0.17-0.12,0.33-0.18,0.5
							c-0.56,1.53-1.37,3-2.39,4.33l-0.07,0.1c-0.03,0.05-0.07,0.09-0.1,0.13c-0.02,0.02-0.06,0.07-0.08,0.09
							c-1.08,1.37-2.47,2.62-4.06,3.62c-1.54,1.01-3.17,1.71-4.82,2.07C132.1,105.2,130.73,105.38,129.39,105.38z M112.74,92.66
							h2.99c0.72,0,1.37,0.43,1.65,1.1c2.04,4.89,6.76,8.06,12.02,8.06c1.03,0,2.11-0.14,3.2-0.42c1.29-0.28,2.51-0.81,3.71-1.6
							c1.27-0.81,2.36-1.79,3.27-2.93c0.01-0.02,0.03-0.04,0.05-0.06l0.05-0.08c0.84-1.1,1.47-2.25,1.93-3.48
							c0.07-0.17,0.11-0.3,0.16-0.43l0.07-0.18c1.03-2.98,1.38-5.21,1.29-11.76c0-0.04-0.01-0.09-0.01-0.13
							c-0.27-8.05-3.72-18.76-30.37-18.76c-14.15,0-30.39,2.24-30.39,19.74c0,10.74,11.48,10.94,11.97,10.94H112.74z"/>
					</g>
					<g>
						<path class="st3" d="M96.73,96.23c-0.98,0-1.78-0.8-1.78-1.78V81.9c0-0.99,0.8-1.78,1.78-1.78h18.87l5.52-8.5
							c0.96-1.47,2.58-2.35,4.34-2.35h16.59c0.98,0,1.78,0.8,1.78,1.78c0,0.99-0.8,1.78-1.78,1.78h-16.59
							c-0.54,0-1.05,0.27-1.34,0.73l-6.05,9.31c-0.33,0.51-0.89,0.81-1.5,0.81H98.52v10.76C98.52,95.43,97.72,96.23,96.73,96.23z"/>
					</g>
					<g>
						<path class="st3" d="M128.35,96.23h-12.63c-0.98,0-1.78-0.8-1.78-1.78c0-0.99,0.8-1.78,1.78-1.78h11.85l5.31-5.7
							c0.34-0.36,0.81-0.57,1.31-0.57h10.48c0.98,0,1.78,0.8,1.78,1.78c0,0.99-0.8,1.78-1.78,1.78h-9.71l-5.31,5.7
							C129.32,96.02,128.85,96.23,128.35,96.23z"/>
					</g>
					<g>
						<path class="st3" d="M105.88,72.83H83.15c-0.99,0-1.78-0.8-1.78-1.78c0-0.99,0.8-1.78,1.78-1.78h22.73
							c0.98,0,1.78,0.8,1.78,1.78C107.67,72.03,106.87,72.83,105.88,72.83z"/>
					</g>
					<g>
						<path class="st3" d="M108.53,75.41c-2.44,0-4.43-1.99-4.43-4.43c0-2.44,1.99-4.43,4.43-4.43c2.44,0,4.43,1.99,4.43,4.43
							C112.96,73.42,110.97,75.41,108.53,75.41z M108.53,70.12c-0.48,0-0.86,0.39-0.86,0.86c0,0.48,0.39,0.86,0.86,0.86
							c0.48,0,0.86-0.39,0.86-0.86C109.39,70.51,109,70.12,108.53,70.12z"/>
					</g>
				</g>
			</g>
		</g>
		<g>
			<path class="st4" d="M81.15,154.02c-0.28,0-0.51-0.1-0.7-0.29c-0.18-0.19-0.28-0.43-0.28-0.71v-12.94c0-0.29,0.09-0.53,0.28-0.72
				s0.42-0.28,0.7-0.28c0.31,0,0.56,0.12,0.76,0.36l8.33,11.09v-10.46c0-0.29,0.1-0.53,0.29-0.72c0.19-0.18,0.43-0.28,0.71-0.28
				c0.29,0,0.53,0.09,0.71,0.28c0.18,0.18,0.27,0.42,0.27,0.72v12.94c0,0.28-0.09,0.52-0.27,0.71c-0.18,0.19-0.41,0.29-0.71,0.29
				c-0.13,0-0.26-0.03-0.41-0.09c-0.15-0.06-0.26-0.14-0.35-0.26l-8.33-11.09v10.44c0,0.28-0.09,0.52-0.28,0.71
				C81.68,153.92,81.44,154.02,81.15,154.02z"/>
			<path class="st4" d="M101.16,154.09c-0.93,0-1.76-0.23-2.5-0.7c-0.74-0.46-1.32-1.1-1.75-1.89c-0.43-0.8-0.64-1.7-0.64-2.71
				c0-1.01,0.23-1.91,0.7-2.71c0.46-0.8,1.1-1.44,1.89-1.9c0.8-0.47,1.69-0.7,2.69-0.7c0.99,0,1.89,0.23,2.68,0.7
				c0.79,0.46,1.42,1.1,1.88,1.9c0.46,0.8,0.7,1.71,0.7,2.71h-0.75c0,1.01-0.21,1.91-0.64,2.71c-0.43,0.8-1.01,1.43-1.75,1.89
				C102.93,153.86,102.09,154.09,101.16,154.09z M101.55,152.37c0.65,0,1.23-0.16,1.74-0.47c0.51-0.31,0.91-0.74,1.2-1.28
				c0.29-0.54,0.44-1.15,0.44-1.83c0-0.69-0.15-1.3-0.44-1.84c-0.29-0.54-0.69-0.97-1.2-1.28c-0.51-0.31-1.09-0.47-1.74-0.47
				c-0.64,0-1.21,0.16-1.73,0.47c-0.52,0.31-0.92,0.74-1.22,1.28c-0.3,0.54-0.45,1.16-0.45,1.84c0,0.68,0.15,1.28,0.45,1.83
				c0.3,0.54,0.71,0.97,1.22,1.28C100.33,152.22,100.91,152.37,101.55,152.37z M105.83,154.03c-0.28,0-0.51-0.09-0.7-0.28
				c-0.18-0.18-0.28-0.42-0.28-0.7v-2.92l0.36-2.03l1.59,0.69v4.26c0,0.28-0.09,0.51-0.28,0.7
				C106.34,153.94,106.11,154.03,105.83,154.03z"/>
			<path class="st4" d="M115.02,154.09c-0.93,0-1.76-0.23-2.5-0.7c-0.74-0.46-1.32-1.1-1.75-1.89c-0.43-0.8-0.64-1.7-0.64-2.71
				c0-1.01,0.23-1.91,0.7-2.71c0.46-0.8,1.1-1.44,1.89-1.9c0.8-0.47,1.69-0.7,2.69-0.7c0.99,0,1.89,0.23,2.68,0.7
				c0.79,0.46,1.42,1.1,1.88,1.9c0.46,0.8,0.7,1.71,0.7,2.71h-0.75c0,1.01-0.21,1.91-0.64,2.71c-0.43,0.8-1.01,1.43-1.75,1.89
				C116.79,153.86,115.95,154.09,115.02,154.09z M115.41,152.37c0.65,0,1.23-0.16,1.74-0.47c0.51-0.31,0.91-0.74,1.2-1.28
				c0.29-0.54,0.44-1.15,0.44-1.83c0-0.69-0.15-1.3-0.44-1.84c-0.29-0.54-0.69-0.97-1.2-1.28c-0.51-0.31-1.09-0.47-1.74-0.47
				c-0.64,0-1.21,0.16-1.73,0.47c-0.52,0.31-0.92,0.74-1.22,1.28c-0.3,0.54-0.45,1.16-0.45,1.84c0,0.68,0.15,1.28,0.45,1.83
				c0.3,0.54,0.71,0.97,1.22,1.28C114.19,152.22,114.77,152.37,115.41,152.37z M119.69,154.03c-0.28,0-0.51-0.09-0.7-0.28
				c-0.18-0.18-0.28-0.42-0.28-0.7v-2.92l0.36-2.03l1.59,0.69v4.26c0,0.28-0.09,0.51-0.28,0.7
				C120.2,153.94,119.97,154.03,119.69,154.03z"/>
			<path class="st4" d="M124.08,145.59c-0.27,0-0.48-0.08-0.65-0.23c-0.17-0.15-0.25-0.34-0.25-0.57c0-0.25,0.08-0.46,0.25-0.61
				c0.17-0.15,0.38-0.23,0.65-0.23h4.41c0.27,0,0.48,0.08,0.65,0.23c0.16,0.15,0.25,0.36,0.25,0.61c0,0.23-0.08,0.42-0.25,0.57
				c-0.17,0.15-0.38,0.23-0.65,0.23H124.08z M128.33,154.02c-0.64,0-1.21-0.16-1.72-0.49c-0.51-0.32-0.91-0.77-1.2-1.33
				c-0.29-0.56-0.44-1.19-0.44-1.89v-9.12c0-0.28,0.09-0.51,0.27-0.69c0.18-0.18,0.41-0.27,0.69-0.27c0.28,0,0.51,0.09,0.69,0.27
				s0.27,0.41,0.27,0.69v9.12c0,0.51,0.14,0.94,0.42,1.28c0.28,0.34,0.62,0.52,1.03,0.52h0.65c0.23,0,0.42,0.09,0.58,0.27
				c0.16,0.18,0.24,0.41,0.24,0.69c0,0.28-0.1,0.51-0.31,0.69c-0.21,0.18-0.48,0.27-0.81,0.27H128.33z"/>
			<path class="st4" d="M134.31,141.86c-0.34,0-0.64-0.12-0.89-0.37c-0.25-0.25-0.37-0.54-0.37-0.89s0.12-0.64,0.37-0.89
				c0.25-0.25,0.54-0.37,0.89-0.37s0.64,0.12,0.89,0.37s0.37,0.54,0.37,0.89s-0.12,0.64-0.37,0.89
				C134.95,141.73,134.65,141.86,134.31,141.86z M134.31,154.02c-0.28,0-0.51-0.09-0.7-0.28c-0.18-0.18-0.28-0.42-0.28-0.7v-8.51
				c0-0.29,0.09-0.53,0.28-0.71c0.18-0.18,0.42-0.27,0.7-0.27c0.29,0,0.53,0.09,0.71,0.27c0.18,0.18,0.27,0.41,0.27,0.71v8.51
				c0,0.28-0.09,0.51-0.27,0.7C134.84,153.92,134.6,154.02,134.31,154.02z"/>
			<path class="st4" d="M140.81,154.02c-0.28,0-0.51-0.09-0.68-0.26c-0.17-0.17-0.26-0.4-0.26-0.68v-13.06
				c0-0.28,0.09-0.51,0.26-0.68c0.17-0.17,0.4-0.26,0.68-0.26c0.28,0,0.51,0.09,0.68,0.26c0.17,0.17,0.26,0.4,0.26,0.68v13.06
				c0,0.28-0.09,0.51-0.26,0.68C141.31,153.93,141.09,154.02,140.81,154.02z M141.71,150.19l-1.18-1.3l5.87-5.24
				c0.19-0.18,0.4-0.26,0.64-0.25s0.44,0.11,0.6,0.31c0.18,0.19,0.26,0.4,0.25,0.63c-0.01,0.23-0.11,0.43-0.31,0.61L141.71,150.19z
				 M147.63,153.92c-0.2,0.16-0.43,0.24-0.68,0.22c-0.25-0.02-0.46-0.13-0.62-0.33l-3.88-4.8l1.34-1.26l3.98,4.89
				c0.16,0.2,0.24,0.42,0.22,0.66C147.97,153.53,147.85,153.74,147.63,153.92z"/>
		</g>
		<g>
			<path class="st5" d="M84.68,168.28c-0.16,0-0.27-0.07-0.36-0.2c-0.08-0.13-0.09-0.28-0.02-0.43l2.34-5.59
				c0.08-0.2,0.22-0.29,0.41-0.29c0.2,0,0.34,0.1,0.41,0.29l2.35,5.6c0.06,0.16,0.05,0.3-0.03,0.42c-0.08,0.12-0.2,0.19-0.36,0.19
				c-0.08,0-0.16-0.02-0.24-0.07c-0.07-0.05-0.13-0.11-0.16-0.2l-2.06-5.13h0.23l-2.1,5.13c-0.04,0.09-0.1,0.15-0.17,0.2
				C84.83,168.25,84.76,168.28,84.68,168.28z M85.12,166.84l0.33-0.72h3.26l0.33,0.72H85.12z"/>
			<path class="st5" d="M91.64,168.28c-0.12,0-0.22-0.04-0.31-0.13c-0.08-0.08-0.12-0.19-0.12-0.31v-5.64
				c0-0.13,0.04-0.23,0.12-0.31c0.08-0.08,0.19-0.12,0.31-0.12c0.13,0,0.23,0.04,0.31,0.12c0.08,0.08,0.12,0.18,0.12,0.31v5.64
				c0,0.12-0.04,0.23-0.12,0.31C91.87,168.23,91.77,168.28,91.64,168.28z"/>
			<path class="st5" d="M99.07,168.36c-0.36,0-0.69-0.06-1.02-0.17c-0.32-0.11-0.6-0.27-0.84-0.47c-0.24-0.2-0.41-0.43-0.52-0.69
				c-0.06-0.12-0.05-0.23,0-0.33c0.06-0.1,0.16-0.16,0.3-0.19c0.1-0.02,0.2-0.01,0.3,0.05c0.1,0.05,0.17,0.13,0.22,0.24
				c0.07,0.14,0.18,0.27,0.33,0.38c0.15,0.12,0.34,0.21,0.55,0.28c0.22,0.07,0.44,0.11,0.68,0.11c0.27,0,0.51-0.04,0.74-0.13
				c0.23-0.08,0.41-0.2,0.55-0.36c0.14-0.16,0.21-0.35,0.21-0.59c0-0.29-0.11-0.56-0.35-0.79c-0.23-0.23-0.61-0.38-1.14-0.43
				c-0.69-0.07-1.23-0.27-1.62-0.61c-0.39-0.34-0.59-0.76-0.59-1.26c0-0.37,0.1-0.68,0.31-0.93c0.21-0.26,0.48-0.45,0.84-0.58
				c0.35-0.13,0.74-0.2,1.18-0.2c0.34,0,0.63,0.05,0.89,0.14c0.25,0.09,0.47,0.23,0.66,0.39c0.19,0.17,0.35,0.36,0.49,0.59
				c0.08,0.12,0.11,0.24,0.1,0.34c-0.01,0.11-0.07,0.19-0.16,0.25c-0.11,0.07-0.22,0.08-0.34,0.04s-0.21-0.11-0.28-0.22
				c-0.09-0.16-0.2-0.3-0.32-0.41c-0.13-0.11-0.28-0.2-0.45-0.26c-0.17-0.06-0.38-0.1-0.61-0.1c-0.41-0.01-0.75,0.07-1.03,0.23
				c-0.28,0.16-0.42,0.4-0.42,0.73c0,0.17,0.04,0.33,0.13,0.48c0.09,0.15,0.25,0.28,0.48,0.39c0.23,0.11,0.56,0.19,1,0.23
				c0.66,0.07,1.17,0.27,1.54,0.6c0.37,0.34,0.55,0.78,0.55,1.33c0,0.32-0.07,0.59-0.2,0.82c-0.13,0.23-0.3,0.43-0.52,0.59
				c-0.22,0.16-0.47,0.28-0.75,0.35C99.66,168.32,99.37,168.36,99.07,168.36z"/>
			<path class="st5" d="M105.13,168.31c-0.45,0-0.85-0.1-1.19-0.3c-0.34-0.2-0.61-0.47-0.81-0.82c-0.2-0.35-0.3-0.75-0.3-1.2
				c0-0.46,0.1-0.86,0.3-1.2c0.2-0.35,0.47-0.62,0.81-0.82c0.34-0.2,0.74-0.3,1.19-0.3c0.44,0,0.84,0.1,1.18,0.3
				s0.61,0.47,0.81,0.82c0.2,0.35,0.3,0.75,0.3,1.2c0,0.45-0.1,0.85-0.29,1.2c-0.19,0.35-0.46,0.62-0.81,0.82
				C105.98,168.21,105.58,168.31,105.13,168.31z M105.13,167.56c0.29,0,0.54-0.07,0.77-0.2c0.22-0.13,0.4-0.32,0.52-0.55
				c0.13-0.23,0.19-0.5,0.19-0.81c0-0.31-0.06-0.58-0.19-0.81c-0.12-0.24-0.3-0.42-0.52-0.55c-0.22-0.13-0.48-0.2-0.77-0.2
				s-0.54,0.07-0.77,0.2c-0.22,0.13-0.4,0.32-0.52,0.55s-0.19,0.51-0.19,0.81c0,0.31,0.06,0.57,0.19,0.81
				c0.13,0.23,0.3,0.42,0.52,0.55C104.59,167.49,104.85,167.56,105.13,167.56z"/>
			<path class="st5" d="M110.19,168.28c-0.24,0-0.46-0.07-0.65-0.2c-0.19-0.13-0.34-0.31-0.44-0.55c-0.11-0.23-0.16-0.49-0.16-0.79
				v-4.55c0-0.12,0.04-0.22,0.12-0.3s0.18-0.12,0.3-0.12s0.22,0.04,0.3,0.12c0.08,0.08,0.12,0.18,0.12,0.3v4.55
				c0,0.21,0.04,0.37,0.12,0.51c0.08,0.13,0.18,0.2,0.3,0.2h0.21c0.11,0,0.2,0.04,0.27,0.12c0.07,0.08,0.1,0.18,0.1,0.3
				c0,0.12-0.05,0.22-0.16,0.3c-0.11,0.08-0.24,0.12-0.41,0.12H110.19z"/>
			<path class="st5" d="M113.94,168.32c-0.38,0-0.73-0.08-1.03-0.25c-0.3-0.16-0.54-0.4-0.72-0.72c-0.17-0.32-0.26-0.7-0.26-1.16
				v-2.05c0-0.12,0.04-0.22,0.12-0.3c0.08-0.08,0.18-0.12,0.3-0.12s0.22,0.04,0.3,0.12c0.08,0.08,0.12,0.18,0.12,0.3v2.05
				c0,0.31,0.06,0.57,0.17,0.77c0.12,0.2,0.28,0.35,0.48,0.45s0.42,0.15,0.67,0.15c0.24,0,0.45-0.05,0.64-0.14
				c0.19-0.1,0.33-0.22,0.44-0.38c0.11-0.16,0.17-0.34,0.17-0.54h0.52c0,0.34-0.08,0.66-0.25,0.93c-0.17,0.28-0.4,0.5-0.69,0.66
				C114.64,168.24,114.31,168.32,113.94,168.32z M115.77,168.28c-0.12,0-0.22-0.04-0.3-0.12c-0.08-0.08-0.12-0.18-0.12-0.3v-3.71
				c0-0.13,0.04-0.23,0.12-0.31c0.08-0.08,0.18-0.12,0.3-0.12c0.13,0,0.23,0.04,0.31,0.12s0.12,0.18,0.12,0.31v3.71
				c0,0.12-0.04,0.22-0.12,0.3C116,168.23,115.9,168.28,115.77,168.28z"/>
			<path class="st5" d="M117.92,164.6c-0.12,0-0.21-0.03-0.28-0.1c-0.07-0.07-0.11-0.15-0.11-0.25c0-0.11,0.04-0.2,0.11-0.27
				c0.07-0.07,0.17-0.1,0.28-0.1h1.92c0.12,0,0.21,0.03,0.28,0.1c0.07,0.07,0.11,0.16,0.11,0.27c0,0.1-0.04,0.18-0.11,0.25
				c-0.07,0.07-0.17,0.1-0.28,0.1H117.92z M119.77,168.28c-0.28,0-0.53-0.07-0.75-0.21c-0.22-0.14-0.4-0.33-0.52-0.58
				s-0.19-0.52-0.19-0.82v-3.97c0-0.12,0.04-0.22,0.12-0.3c0.08-0.08,0.18-0.12,0.3-0.12c0.12,0,0.22,0.04,0.3,0.12
				s0.12,0.18,0.12,0.3v3.97c0,0.22,0.06,0.41,0.18,0.56c0.12,0.15,0.27,0.22,0.45,0.22h0.28c0.1,0,0.18,0.04,0.25,0.12
				s0.1,0.18,0.1,0.3c0,0.12-0.05,0.22-0.14,0.3c-0.09,0.08-0.21,0.12-0.35,0.12H119.77z"/>
			<path class="st5" d="M122.38,162.98c-0.15,0-0.28-0.05-0.39-0.16c-0.11-0.11-0.16-0.24-0.16-0.39c0-0.15,0.05-0.28,0.16-0.39
				s0.24-0.16,0.39-0.16s0.28,0.05,0.39,0.16c0.11,0.11,0.16,0.24,0.16,0.39c0,0.15-0.05,0.28-0.16,0.39
				C122.66,162.93,122.53,162.98,122.38,162.98z M122.38,168.28c-0.12,0-0.22-0.04-0.3-0.12c-0.08-0.08-0.12-0.18-0.12-0.3v-3.7
				c0-0.13,0.04-0.23,0.12-0.31c0.08-0.08,0.18-0.12,0.3-0.12c0.13,0,0.23,0.04,0.31,0.12c0.08,0.08,0.12,0.18,0.12,0.31v3.7
				c0,0.12-0.04,0.22-0.12,0.3C122.61,168.23,122.5,168.28,122.38,168.28z"/>
			<path class="st5" d="M126.86,168.31c-0.45,0-0.85-0.1-1.19-0.3c-0.34-0.2-0.62-0.47-0.81-0.82c-0.2-0.35-0.3-0.75-0.3-1.2
				c0-0.46,0.1-0.86,0.3-1.2c0.2-0.35,0.47-0.62,0.81-0.82c0.34-0.2,0.74-0.3,1.19-0.3c0.44,0,0.84,0.1,1.18,0.3
				c0.34,0.2,0.62,0.47,0.81,0.82c0.2,0.35,0.3,0.75,0.3,1.2c0,0.45-0.1,0.85-0.29,1.2c-0.19,0.35-0.46,0.62-0.81,0.82
				C127.71,168.21,127.31,168.31,126.86,168.31z M126.86,167.56c0.29,0,0.54-0.07,0.77-0.2c0.22-0.13,0.39-0.32,0.52-0.55
				c0.13-0.23,0.19-0.5,0.19-0.81c0-0.31-0.06-0.58-0.19-0.81c-0.13-0.24-0.3-0.42-0.52-0.55c-0.22-0.13-0.48-0.2-0.77-0.2
				c-0.29,0-0.54,0.07-0.77,0.2c-0.22,0.13-0.4,0.32-0.52,0.55c-0.13,0.24-0.19,0.51-0.19,0.81c0,0.31,0.06,0.57,0.19,0.81
				c0.13,0.23,0.3,0.42,0.52,0.55C126.32,167.49,126.58,167.56,126.86,167.56z"/>
			<path class="st5" d="M131.26,168.28c-0.12,0-0.22-0.04-0.3-0.12c-0.08-0.08-0.12-0.18-0.12-0.3v-3.71c0-0.13,0.04-0.23,0.12-0.31
				c0.08-0.08,0.18-0.12,0.3-0.12c0.13,0,0.23,0.04,0.31,0.12c0.08,0.08,0.12,0.18,0.12,0.31v3.71c0,0.12-0.04,0.22-0.12,0.3
				C131.49,168.24,131.39,168.28,131.26,168.28z M134.68,168.28c-0.12,0-0.22-0.04-0.3-0.12c-0.08-0.08-0.12-0.18-0.12-0.3v-2.05
				c0-0.32-0.06-0.57-0.18-0.77c-0.12-0.2-0.27-0.35-0.47-0.45c-0.2-0.1-0.42-0.15-0.68-0.15c-0.23,0-0.44,0.05-0.63,0.14
				c-0.19,0.09-0.34,0.22-0.45,0.38c-0.11,0.16-0.17,0.34-0.17,0.54h-0.52c0-0.35,0.08-0.66,0.25-0.94c0.17-0.28,0.4-0.49,0.7-0.65
				c0.29-0.16,0.62-0.24,0.99-0.24c0.38,0,0.72,0.08,1.03,0.25c0.3,0.16,0.54,0.4,0.72,0.72c0.18,0.32,0.26,0.71,0.26,1.16v2.05
				c0,0.12-0.04,0.22-0.12,0.3C134.91,168.24,134.8,168.28,134.68,168.28z"/>
			<path class="st5" d="M138.59,168.31c-0.39,0-0.75-0.06-1.08-0.18c-0.33-0.12-0.59-0.27-0.77-0.45c-0.08-0.09-0.12-0.19-0.1-0.3
				c0.01-0.11,0.07-0.21,0.16-0.28c0.11-0.09,0.22-0.13,0.33-0.11c0.11,0.01,0.2,0.06,0.28,0.15c0.1,0.11,0.25,0.2,0.45,0.3
				c0.21,0.09,0.44,0.14,0.7,0.14c0.32,0,0.57-0.05,0.74-0.16c0.17-0.1,0.26-0.24,0.26-0.41c0-0.17-0.07-0.31-0.24-0.43
				c-0.16-0.12-0.46-0.22-0.9-0.3c-0.56-0.11-0.97-0.28-1.22-0.5c-0.25-0.22-0.38-0.49-0.38-0.82c0-0.28,0.08-0.52,0.25-0.7
				c0.17-0.19,0.38-0.32,0.64-0.42c0.26-0.09,0.53-0.14,0.82-0.14c0.37,0,0.69,0.06,0.97,0.18c0.28,0.12,0.51,0.28,0.67,0.48
				c0.08,0.09,0.11,0.18,0.11,0.28c-0.01,0.1-0.05,0.18-0.14,0.25c-0.09,0.06-0.2,0.08-0.32,0.06c-0.12-0.02-0.22-0.07-0.31-0.15
				c-0.14-0.13-0.29-0.22-0.45-0.27c-0.16-0.05-0.35-0.08-0.56-0.08c-0.25,0-0.45,0.04-0.62,0.13c-0.17,0.08-0.25,0.21-0.25,0.37
				c0,0.1,0.03,0.19,0.08,0.27c0.05,0.08,0.16,0.15,0.31,0.22c0.16,0.06,0.38,0.13,0.68,0.19c0.42,0.08,0.74,0.19,0.99,0.32
				s0.41,0.28,0.52,0.45c0.11,0.17,0.16,0.36,0.16,0.59c0,0.26-0.07,0.49-0.2,0.69s-0.34,0.37-0.6,0.49
				C139.31,168.25,138.98,168.31,138.59,168.31z"/>
		</g>
	</g>
</g>
</svg>
